<svg xmlns="http://www.w3.org/2000/svg" width="1200" height="384" viewBox="0 0 1200 384" role="img" aria-labelledby="ct cd">
  <title id="ct">十二类话题标题</title>
  <desc id="cd">十二个类别及其图标：内容制作、工具开发、故障排查、部署上线、数据分析、网络代理、对比调研、页面设计、方法整理、日程安排、环境配置、一般讨论。完整定义见 README 表格。</desc>
  <rect width="1200" height="384" rx="22" fill="#0A0D14"/>
  <rect x="0.5" y="0.5" width="1199" height="383" rx="21.5" fill="none" stroke="#222C3C"/>
  <text x="48" y="54" font-family="-apple-system, BlinkMacSystemFont, Segoe UI, PingFang SC, Microsoft YaHei, sans-serif" font-size="18" fill="#7E8AA0">类别按持续工作的产物选择，不按最后一个动作切换</text>
  <g id="cat-1" transform="translate(48 84)">
    <rect x="0.5" y="0.5" width="257" height="75" rx="16" fill="#FFFFFF" fill-opacity="0.04" stroke="#222C3C"/>
    <rect x="12" y="10" width="56" height="56" rx="13" fill="#080B11"/>
    <text x="80" y="34" font-family="-apple-system, BlinkMacSystemFont, Segoe UI, PingFang SC, Microsoft YaHei, sans-serif" font-size="20" font-weight="600" fill="#E9EEF8">内容制作</text>
    <text x="80" y="58" font-family="-apple-system, BlinkMacSystemFont, Segoe UI, PingFang SC, Microsoft YaHei, sans-serif" font-size="15" fill="#7E8AA0">选题、脚本、剪辑</text>
  </g>
  <g id="cat-2" transform="translate(330 84)">
    <rect x="0.5" y="0.5" width="257" height="75" rx="16" fill="#FFFFFF" fill-opacity="0.04" stroke="#222C3C"/>
    <rect x="12" y="10" width="56" height="56" rx="13" fill="#080B11"/>
    <text x="80" y="34" font-family="-apple-system, BlinkMacSystemFont, Segoe UI, PingFang SC, Microsoft YaHei, sans-serif" font-size="20" font-weight="600" fill="#E9EEF8">工具开发</text>
    <text x="80" y="58" font-family="-apple-system, BlinkMacSystemFont, Segoe UI, PingFang SC, Microsoft YaHei, sans-serif" font-size="15" fill="#7E8AA0">功能、代码、插件</text>
  </g>
  <g id="cat-3" transform="translate(612 84)">
    <rect x="0.5" y="0.5" width="257" height="75" rx="16" fill="#FFFFFF" fill-opacity="0.04" stroke="#222C3C"/>
    <rect x="12" y="10" width="56" height="56" rx="13" fill="#080B11"/>
    <text x="80" y="34" font-family="-apple-system, BlinkMacSystemFont, Segoe UI, PingFang SC, Microsoft YaHei, sans-serif" font-size="20" font-weight="600" fill="#E9EEF8">故障排查</text>
    <text x="80" y="58" font-family="-apple-system, BlinkMacSystemFont, Segoe UI, PingFang SC, Microsoft YaHei, sans-serif" font-size="15" fill="#7E8AA0">定位并修复故障</text>
  </g>
  <g id="cat-4" transform="translate(894 84)">
    <rect x="0.5" y="0.5" width="257" height="75" rx="16" fill="#FFFFFF" fill-opacity="0.04" stroke="#222C3C"/>
    <rect x="12" y="10" width="56" height="56" rx="13" fill="#080B11"/>
    <text x="80" y="34" font-family="-apple-system, BlinkMacSystemFont, Segoe UI, PingFang SC, Microsoft YaHei, sans-serif" font-size="20" font-weight="600" fill="#E9EEF8">部署上线</text>
    <text x="80" y="58" font-family="-apple-system, BlinkMacSystemFont, Segoe UI, PingFang SC, Microsoft YaHei, sans-serif" font-size="15" fill="#7E8AA0">容器、流水线、上线</text>
  </g>
  <g id="cat-5" transform="translate(48 176)">
    <rect x="0.5" y="0.5" width="257" height="75" rx="16" fill="#FFFFFF" fill-opacity="0.04" stroke="#222C3C"/>
    <rect x="12" y="10" width="56" height="56" rx="13" fill="#080B11"/>
    <text x="80" y="34" font-family="-apple-system, BlinkMacSystemFont, Segoe UI, PingFang SC, Microsoft YaHei, sans-serif" font-size="20" font-weight="600" fill="#E9EEF8">数据分析</text>
    <text x="80" y="58" font-family="-apple-system, BlinkMacSystemFont, Segoe UI, PingFang SC, Microsoft YaHei, sans-serif" font-size="15" fill="#7E8AA0">日志、指标、报表</text>
  </g>
  <g id="cat-6" transform="translate(330 176)">
    <rect x="0.5" y="0.5" width="257" height="75" rx="16" fill="#FFFFFF" fill-opacity="0.04" stroke="#222C3C"/>
    <rect x="12" y="10" width="56" height="56" rx="13" fill="#080B11"/>
    <text x="80" y="34" font-family="-apple-system, BlinkMacSystemFont, Segoe UI, PingFang SC, Microsoft YaHei, sans-serif" font-size="20" font-weight="600" fill="#E9EEF8">网络代理</text>
    <text x="80" y="58" font-family="-apple-system, BlinkMacSystemFont, Segoe UI, PingFang SC, Microsoft YaHei, sans-serif" font-size="15" fill="#7E8AA0">分流、端口、连通</text>
  </g>
  <g id="cat-7" transform="translate(612 176)">
    <rect x="0.5" y="0.5" width="257" height="75" rx="16" fill="#FFFFFF" fill-opacity="0.04" stroke="#222C3C"/>
    <rect x="12" y="10" width="56" height="56" rx="13" fill="#080B11"/>
    <text x="80" y="34" font-family="-apple-system, BlinkMacSystemFont, Segoe UI, PingFang SC, Microsoft YaHei, sans-serif" font-size="20" font-weight="600" fill="#E9EEF8">对比调研</text>
    <text x="80" y="58" font-family="-apple-system, BlinkMacSystemFont, Segoe UI, PingFang SC, Microsoft YaHei, sans-serif" font-size="15" fill="#7E8AA0">比较后形成判断</text>
  </g>
  <g id="cat-8" transform="translate(894 176)">
    <rect x="0.5" y="0.5" width="257" height="75" rx="16" fill="#FFFFFF" fill-opacity="0.04" stroke="#222C3C"/>
    <rect x="12" y="10" width="56" height="56" rx="13" fill="#080B11"/>
    <text x="80" y="34" font-family="-apple-system, BlinkMacSystemFont, Segoe UI, PingFang SC, Microsoft YaHei, sans-serif" font-size="20" font-weight="600" fill="#E9EEF8">页面设计</text>
    <text x="80" y="58" font-family="-apple-system, BlinkMacSystemFont, Segoe UI, PingFang SC, Microsoft YaHei, sans-serif" font-size="15" fill="#7E8AA0">布局、视觉、动效</text>
  </g>
  <g id="cat-9" transform="translate(48 268)">
    <rect x="0.5" y="0.5" width="257" height="75" rx="16" fill="#FFFFFF" fill-opacity="0.04" stroke="#222C3C"/>
    <rect x="12" y="10" width="56" height="56" rx="13" fill="#080B11"/>
    <text x="80" y="34" font-family="-apple-system, BlinkMacSystemFont, Segoe UI, PingFang SC, Microsoft YaHei, sans-serif" font-size="20" font-weight="600" fill="#E9EEF8">方法整理</text>
    <text x="80" y="58" font-family="-apple-system, BlinkMacSystemFont, Segoe UI, PingFang SC, Microsoft YaHei, sans-serif" font-size="15" fill="#7E8AA0">文档、指南、方法</text>
  </g>
  <g id="cat-10" transform="translate(330 268)">
    <rect x="0.5" y="0.5" width="257" height="75" rx="16" fill="#FFFFFF" fill-opacity="0.04" stroke="#222C3C"/>
    <rect x="12" y="10" width="56" height="56" rx="13" fill="#080B11"/>
    <text x="80" y="34" font-family="-apple-system, BlinkMacSystemFont, Segoe UI, PingFang SC, Microsoft YaHei, sans-serif" font-size="20" font-weight="600" fill="#E9EEF8">日程安排</text>
    <text x="80" y="58" font-family="-apple-system, BlinkMacSystemFont, Segoe UI, PingFang SC, Microsoft YaHei, sans-serif" font-size="15" fill="#7E8AA0">日程、提醒、待办</text>
  </g>
  <g id="cat-11" transform="translate(612 268)">
    <rect x="0.5" y="0.5" width="257" height="75" rx="16" fill="#FFFFFF" fill-opacity="0.04" stroke="#222C3C"/>
    <rect x="12" y="10" width="56" height="56" rx="13" fill="#080B11"/>
    <text x="80" y="34" font-family="-apple-system, BlinkMacSystemFont, Segoe UI, PingFang SC, Microsoft YaHei, sans-serif" font-size="20" font-weight="600" fill="#E9EEF8">环境配置</text>
    <text x="80" y="58" font-family="-apple-system, BlinkMacSystemFont, Segoe UI, PingFang SC, Microsoft YaHei, sans-serif" font-size="15" fill="#7E8AA0">安装、连接、账号</text>
  </g>
  <g id="cat-12" transform="translate(894 268)">
    <rect x="0.5" y="0.5" width="257" height="75" rx="16" fill="#FFFFFF" fill-opacity="0.04" stroke="#222C3C"/>
    <rect x="12" y="10" width="56" height="56" rx="13" fill="#080B11"/>
    <text x="80" y="34" font-family="-apple-system, BlinkMacSystemFont, Segoe UI, PingFang SC, Microsoft YaHei, sans-serif" font-size="20" font-weight="600" fill="#E9EEF8">一般讨论</text>
    <text x="80" y="58" font-family="-apple-system, BlinkMacSystemFont, Segoe UI, PingFang SC, Microsoft YaHei, sans-serif" font-size="15" fill="#7E8AA0">有对象的其他事务</text>
  </g>
</svg>
